NotoSerif-CondensedBoldItalic.ufo
<glyph name="Lslash" format="2">
  <advance width="556"/>
  <unicode hex="0141"/>
  <anchor x="221" y="0" name="bottom"/>
  <anchor x="373" y="714" name="top"/>
  <anchor x="316" y="357" name="center"/>
  <anchor x="631" y="714" name="topright"/>
  <outline>
    <contour>
      <point x="33" y="242" type="line"/>
      <point x="113" y="283" type="line"/>
      <point x="301" y="379" type="line"/>
      <point x="416" y="438" type="line"/>
      <point x="435" y="524" type="line"/>
      <point x="319" y="462" type="line"/>
      <point x="132" y="367" type="line"/>
      <point x="52" y="326" type="line"/>
    </contour>
    <component base="L"/>
  </outline>
</glyph>
<glyph name="lslash" format="2">
  <advance width="326"/>
  <unicode hex="0142"/>
  <anchor x="106" y="0" name="bottom"/>
  <anchor x="268" y="760" name="top"/>
  <anchor x="220" y="268" name="center"/>
  <anchor x="411" y="760" name="topright"/>
  <outline>
    <contour>
      <point x="1" y="226" type="line"/>
      <point x="59" y="255" type="line"/>
      <point x="240" y="347" type="line"/>
      <point x="316" y="385" type="line"/>
      <point x="335" y="474" type="line"/>
      <point x="259" y="437" type="line"/>
      <point x="78" y="343" type="line"/>
      <point x="19" y="313" type="line"/>
    </contour>
    <component base="l"/>
  </outline>
</glyph>
<glyph name="uni0191" format="2">
  <advance width="644"/>
  <unicode hex="0191"/>
  <anchor x="124" y="-10" name="bottom"/>
  <anchor x="474" y="714" name="top"/>
  <anchor x="741" y="714" name="topright"/>
  <outline>
    <contour>
      <point x="124" y="-10" type="curve" smooth="yes"/>
      <point x="276" y="-10"/>
      <point x="351" y="59"/>
      <point x="382" y="209" type="curve" smooth="yes"/>
      <point x="405" y="319" type="line"/>
      <point x="596" y="319" type="line"/>
      <point x="609" y="382" type="line"/>
      <point x="419" y="382" type="line"/>
      <point x="474" y="649" type="line"/>
      <point x="564" y="649" type="line" smooth="yes"/>
      <point x="607" y="649"/>
      <point x="623" y="622"/>
      <point x="623" y="587" type="curve" smooth="yes"/>
      <point x="623" y="579"/>
      <point x="619" y="547"/>
      <point x="616" y="524" type="curve"/>
      <point x="689" y="524" type="line"/>
      <point x="727" y="714" type="line"/>
      <point x="244" y="714" type="line"/>
      <point x="231" y="657" type="line"/>
      <point x="242" y="657" type="line" smooth="yes"/>
      <point x="275" y="657"/>
      <point x="300" y="653"/>
      <point x="300" y="627" type="curve" smooth="yes"/>
      <point x="300" y="621"/>
      <point x="297" y="612"/>
      <point x="292" y="589" type="curve" smooth="yes"/>
      <point x="196" y="142" type="line" smooth="yes"/>
      <point x="183" y="79"/>
      <point x="169" y="54"/>
      <point x="137" y="54" type="curve" smooth="yes"/>
      <point x="93" y="54"/>
      <point x="79" y="103"/>
      <point x="79" y="191" type="curve"/>
      <point x="14" y="191"/>
      <point x="-44" y="163"/>
      <point x="-44" y="96" type="curve" smooth="yes"/>
      <point x="-44" y="29"/>
      <point x="22" y="-10"/>
    </contour>
  </outline>
</glyph>
<glyph name="uni01B6" format="2">
  <advance width="491"/>
  <unicode hex="01B6"/>
  <anchor x="189" y="0" name="bottom"/>
  <anchor x="303" y="536" name="top"/>
  <anchor x="528" y="536" name="topright"/>
  <outline>
    <contour>
      <point x="53" y="252" type="line"/>
      <point x="171" y="252" type="line"/>
      <point x="292" y="252" type="line"/>
      <point x="455" y="252" type="line"/>
      <point x="470" y="314" type="line"/>
      <point x="366" y="314" type="line"/>
      <point x="200" y="314" type="line"/>
      <point x="68" y="314" type="line"/>
    </contour>
    <component base="z"/>
  </outline>
</glyph>
<glyph name="uni0247" format="2">
  <advance width="468"/>
  <unicode hex="0247"/>
  <anchor x="144" y="-153" name="bottom"/>
  <anchor x="325" y="695" name="top"/>
  <anchor x="515" y="536" name="topright"/>
  <outline>
    <contour>
      <point x="38" y="-153" type="line"/>
      <point x="100" y="-153" type="line"/>
      <point x="444" y="695" type="line"/>
      <point x="382" y="695" type="line"/>
    </contour>
    <component base="e"/>
  </outline>
</glyph>
<glyph name="uni02A2" format="2">
  <advance width="518"/>
  <unicode hex="02A2"/>
  <anchor x="202" y="0" name="bottom"/>
  <anchor x="365" y="765" name="top"/>
  <outline>
    <contour>
      <point x="81" y="176" type="line"/>
      <point x="395" y="176" type="line"/>
      <point x="409" y="238" type="line"/>
      <point x="95" y="238" type="line"/>
    </contour>
    <component base="uni0295"/>
  </outline>
</glyph>
<glyph name="slashshortoverlaycomb" format="2">
  <unicode hex="0337"/>
  <anchor x="10" y="289" name="_center"/>
  <outline>
    <contour>
      <point x="-157" y="155" type="line"/>
      <point x="191" y="356" type="line"/>
      <point x="177" y="423" type="line"/>
      <point x="-171" y="222" type="line"/>
    </contour>
  </outline>
</glyph>
<glyph name="uni03D2" format="2">
  <advance width="656"/>
  <unicode hex="03D2"/>
  <anchor x="423" y="714" name="top"/>
  <outline>
    <contour>
      <point x="100" y="0" type="line"/>
      <point x="444" y="0" type="line"/>
      <point x="457" y="57" type="line"/>
      <point x="437" y="57" type="line" smooth="yes"/>
      <point x="404" y="57"/>
      <point x="379" y="63"/>
      <point x="378" y="80" type="curve" smooth="yes"/>
      <point x="377" y="88"/>
      <point x="376" y="79"/>
      <point x="388" y="133" type="curve" smooth="yes"/>
      <point x="404" y="213" type="line" smooth="yes"/>
      <point x="422" y="303"/>
      <point x="503" y="450"/>
      <point x="539" y="516" type="curve" smooth="yes"/>
      <point x="588" y="605"/>
      <point x="620" y="632"/>
      <point x="647" y="632" type="curve" smooth="yes"/>
      <point x="673" y="632"/>
      <point x="676" y="607"/>
      <point x="677" y="583" type="curve"/>
      <point x="715" y="590"/>
      <point x="750" y="614"/>
      <point x="750" y="663" type="curve" smooth="yes"/>
      <point x="750" y="691"/>
      <point x="736" y="722"/>
      <point x="669" y="722" type="curve" smooth="yes"/>
      <point x="614" y="722"/>
      <point x="563" y="698"/>
      <point x="500" y="589" type="curve" smooth="yes"/>
      <point x="462" y="524"/>
      <point x="427" y="443"/>
      <point x="400" y="365" type="curve"/>
      <point x="402" y="447"/>
      <point x="404" y="526"/>
      <point x="386" y="588" type="curve" smooth="yes"/>
      <point x="362" y="671"/>
      <point x="310" y="714"/>
      <point x="189" y="714" type="curve" smooth="yes"/>
      <point x="118" y="714" type="line"/>
      <point x="104" y="657" type="line"/>
      <point x="121" y="657" type="line" smooth="yes"/>
      <point x="164" y="657"/>
      <point x="182" y="617"/>
      <point x="199" y="557" type="curve" smooth="yes"/>
      <point x="211" y="511"/>
      <point x="239" y="372"/>
      <point x="234" y="256" type="curve" smooth="yes"/>
      <point x="233" y="235"/>
      <point x="232" y="215"/>
      <point x="227" y="187" type="curve" smooth="yes"/>
      <point x="212" y="116" type="line" smooth="yes"/>
      <point x="201" y="67"/>
      <point x="170" y="57"/>
      <point x="138" y="57" type="curve" smooth="yes"/>
      <point x="113" y="57" type="line"/>
    </contour>
  </outline>
</glyph>
<glyph name="uni0463" format="2">
  <advance width="535"/>
  <unicode hex="0463"/>
  <anchor x="211" y="0" name="bottom"/>
  <anchor x="373" y="760" name="top"/>
  <outline>
    <contour>
      <point x="268" y="-10" type="curve" smooth="yes"/>
      <point x="397" y="-10"/>
      <point x="512" y="53"/>
      <point x="512" y="177" type="curve" smooth="yes"/>
      <point x="512" y="272"/>
      <point x="461" y="316"/>
      <point x="343" y="316" type="curve" smooth="yes"/>
      <point x="326" y="316"/>
      <point x="297" y="314"/>
      <point x="263" y="311" type="curve"/>
      <point x="295" y="461" type="line"/>
      <point x="429" y="461" type="line"/>
      <point x="441" y="516" type="line"/>
      <point x="308" y="516" type="line"/>
      <point x="359" y="760" type="line"/>
      <point x="126" y="760" type="line"/>
      <point x="114" y="703" type="line"/>
      <point x="142" y="703" type="line" smooth="yes"/>
      <point x="165" y="703"/>
      <point x="173" y="697"/>
      <point x="173" y="680" type="curve" smooth="yes"/>
      <point x="173" y="661"/>
      <point x="166" y="640"/>
      <point x="160" y="607" type="curve" smooth="yes"/>
      <point x="141" y="516" type="line"/>
      <point x="78" y="516" type="line"/>
      <point x="66" y="461" type="line"/>
      <point x="130" y="461" type="line"/>
      <point x="90" y="272" type="line" smooth="yes"/>
      <point x="77" y="211"/>
      <point x="68" y="180"/>
      <point x="68" y="138" type="curve" smooth="yes"/>
      <point x="68" y="40"/>
      <point x="137" y="-10"/>
    </contour>
    <contour>
      <point x="276" y="65" type="curve" smooth="yes"/>
      <point x="242" y="65"/>
      <point x="229" y="85"/>
      <point x="229" y="117" type="curve" smooth="yes"/>
      <point x="229" y="138"/>
      <point x="238" y="192"/>
      <point x="248" y="246" type="curve"/>
      <point x="259" y="247"/>
      <point x="268" y="250"/>
      <point x="294" y="250" type="curve" smooth="yes"/>
      <point x="324" y="250"/>
      <point x="343" y="227"/>
      <point x="343" y="174" type="curve" smooth="yes"/>
      <point x="343" y="109"/>
      <point x="323" y="65"/>
    </contour>
  </outline>
</glyph>
<glyph name="uni04AD" format="2">
  <advance width="845"/>
  <unicode hex="04AD"/>
  <anchor x="319" y="-221" name="bottom"/>
  <anchor x="480" y="536" name="top"/>
  <anchor x="882" y="536" name="topright"/>
  <outline>
    <contour>
      <point x="674" y="-221" type="curve" smooth="yes"/>
      <point x="783" y="-221"/>
      <point x="802" y="-116"/>
      <point x="835" y="65" type="curve"/>
      <point x="812" y="101" type="line"/>
      <point x="755" y="8" type="line"/>
      <point x="709" y="-88"/>
      <point x="690" y="-123"/>
      <point x="632" y="-123" type="curve" smooth="yes"/>
      <point x="592" y="-123"/>
      <point x="567" y="-112"/>
      <point x="541" y="-104" type="curve"/>
      <point x="516" y="-168" type="line"/>
      <point x="566" y="-198"/>
      <point x="608" y="-221"/>
    </contour>
    <component base="m"/>
  </outline>
</glyph>
<glyph name="uni04BE" format="2">
  <advance width="688"/>
  <unicode hex="04BE"/>
  <anchor x="242" y="-210" name="bottom"/>
  <anchor x="439" y="714" name="top"/>
  <outline>
    <contour>
      <point x="338" y="-210" type="curve"/>
      <point x="407" y="-210" type="line"/>
      <point x="438" y="-68"/>
      <point x="443" y="-26"/>
      <point x="558" y="26" type="curve"/>
      <point x="281" y="27" type="line"/>
      <point x="343" y="-7"/>
      <point x="356" y="-46"/>
      <point x="356" y="-88" type="curve" smooth="yes"/>
      <point x="356" y="-130"/>
      <point x="345" y="-174"/>
    </contour>
    <component base="uni04BC"/>
  </outline>
</glyph>
<glyph name="uni04E8" format="2">
  <advance width="684"/>
  <unicode hex="04E8"/>
  <anchor x="285" y="0" name="bottom"/>
  <anchor x="437" y="714" name="top"/>
  <anchor x="380" y="357" name="center"/>
  <anchor x="759" y="714" name="topright"/>
  <outline>
    <contour>
      <point x="154" y="342" type="line"/>
      <point x="605" y="342" type="line"/>
      <point x="608" y="405" type="line"/>
      <point x="156" y="405" type="line"/>
    </contour>
    <component base="O"/>
  </outline>
</glyph>
<glyph name="uni04FE" format="2">
  <advance width="651"/>
  <unicode hex="04FE"/>
  <anchor x="269" y="0" name="bottom"/>
  <anchor x="421" y="714" name="top"/>
  <anchor x="726" y="714" name="topright"/>
  <outline>
    <contour>
      <point x="141" y="345" type="line"/>
      <point x="597" y="345" type="line"/>
      <point x="611" y="401" type="line"/>
      <point x="154" y="401" type="line"/>
    </contour>
    <component base="X"/>
  </outline>
</glyph>
<glyph name="uni051E" format="2">
  <advance width="659"/>
  <unicode hex="051E"/>
  <anchor x="273" y="0" name="bottom"/>
  <anchor x="425" y="714" name="top"/>
  <outline>
    <contour>
      <point x="559" y="411" type="line"/>
      <point x="592" y="453" type="line"/>
      <point x="407" y="609" type="line"/>
      <point x="374" y="568" type="line"/>
    </contour>
    <component base="afii10028"/>
  </outline>
</glyph>
<glyph name="uni1D0C" format="2">
  <advance width="484"/>
  <unicode hex="1D0C"/>
  <anchor x="185" y="0" name="bottom"/>
  <anchor x="299" y="536" name="top"/>
  <outline>
    <contour>
      <point x="42" y="168" type="line"/>
      <point x="380" y="343" type="line"/>
      <point x="395" y="412" type="line"/>
      <point x="56" y="237" type="line"/>
    </contour>
    <component base="uni029F"/>
  </outline>
</glyph>
<glyph name="uni1D2F" format="2">
  <advance width="374"/>
  <unicode hex="1D2F"/>
  <anchor x="203.15" y="287.0" name="bottom"/>
  <anchor x="301.95000000000005" y="715.4" name="top"/>
  <anchor x="475.5" y="715.4" name="topright"/>
  <outline>
    <contour>
      <point x="84" y="492" type="line"/>
      <point x="448" y="492" type="line"/>
      <point x="457" y="531" type="line"/>
      <point x="93" y="531" type="line"/>
    </contour>
    <component base="B" xScale="0.65" yScale="0.6" xOffset="53" yOffset="287"/>
  </outline>
</glyph>
<glyph name="uni1D7A" format="2">
  <advance width="1003"/>
  <unicode hex="1D7A"/>
  <anchor x="131" y="0" name="bottom_1"/>
  <anchor x="657" y="0" name="bottom_2"/>
  <anchor x="245" y="268" name="center_1"/>
  <anchor x="771" y="268" name="center_2"/>
  <anchor x="271" y="659" name="top_1"/>
  <anchor x="819" y="760" name="top_2"/>
  <anchor x="413" y="536" name="topright_1"/>
  <anchor x="1088" y="760" name="topright_2"/>
  <outline>
    <contour>
      <point x="-32" y="-145" type="line"/>
      <point x="47" y="-145" type="line"/>
      <point x="879" y="760" type="line"/>
      <point x="803" y="760" type="line"/>
    </contour>
    <component base="t"/>
    <component base="h" xOffset="404"/>
  </outline>
</glyph>
<glyph name="uni1D7F" format="2">
  <advance width="537"/>
  <unicode hex="1D7F"/>
  <anchor x="225" y="0" name="bottom"/>
  <anchor x="329" y="536" name="top"/>
  <outline>
    <contour>
      <point x="-16" y="246" type="line"/>
      <point x="563" y="246" type="line"/>
      <point x="578" y="313" type="line"/>
      <point x="0" y="313" type="line"/>
    </contour>
    <component base="uni028A"/>
  </outline>
</glyph>
<glyph name="planckconstantovertwopi" format="2">
  <advance width="599"/>
  <unicode hex="210F"/>
  <anchor x="253" y="0" name="bottom"/>
  <anchor x="367" y="268" name="center"/>
  <anchor x="415" y="760" name="top"/>
  <anchor x="684" y="760" name="topright"/>
  <outline>
    <contour>
      <point x="54" y="467" type="line"/>
      <point x="432" y="622" type="line"/>
      <point x="446" y="699" type="line"/>
      <point x="68" y="542" type="line"/>
    </contour>
    <component base="h"/>
  </outline>
</glyph>
<glyph name="threeemdash" format="2">
  <advance width="2480"/>
  <unicode hex="2E3B"/>
  <outline>
    <contour>
      <point x="14" y="231" type="line"/>
      <point x="2470" y="231" type="line"/>
      <point x="2485" y="306" type="line"/>
      <point x="30" y="306" type="line"/>
    </contour>
  </outline>
</glyph>
<glyph name="uniA643" format="2">
  <advance width="504"/>
  <unicode hex="A643"/>
  <outline>
    <contour>
      <point x="63" y="244" type="line"/>
      <point x="438" y="244" type="line"/>
      <point x="451" y="304" type="line"/>
      <point x="76" y="304" type="line"/>
    </contour>
    <component base="uniA641"/>
  </outline>
</glyph>
<glyph name="uniA743" format="2">
  <advance width="529"/>
  <unicode hex="A743"/>
  <anchor x="197" y="0" name="bottom"/>
  <anchor x="359" y="760" name="top"/>
  <anchor x="614" y="760" name="topright"/>
  <outline>
    <contour>
      <point x="247" y="88" type="line"/>
      <point x="462" y="252" type="line"/>
      <point x="438" y="303" type="line"/>
      <point x="226" y="139" type="line"/>
    </contour>
    <component base="k"/>
  </outline>
</glyph>
<glyph name="uniA748" format="2">
  <advance width="550"/>
  <unicode hex="A748"/>
  <anchor x="221" y="0" name="bottom"/>
  <anchor x="316" y="357" name="center"/>
  <anchor x="373" y="714" name="top"/>
  <anchor x="631" y="714" name="topright"/>
  <outline>
    <contour>
      <point x="92" y="531" type="line"/>
      <point x="414" y="531" type="line"/>
      <point x="429" y="591" type="line"/>
      <point x="108" y="591" type="line"/>
    </contour>
    <component base="L"/>
  </outline>
</glyph>
<glyph name="uniA74B" format="2">
  <advance width="537"/>
  <unicode hex="A74B"/>
  <anchor x="212" y="0" name="bottom"/>
  <anchor x="326" y="268" name="center"/>
  <anchor x="326" y="536" name="top"/>
  <anchor x="574" y="536" name="topright"/>
  <outline>
    <contour>
      <point x="-27" y="236" type="line"/>
      <point x="578" y="236" type="line"/>
      <point x="590" y="294" type="line"/>
      <point x="-16" y="294" type="line"/>
    </contour>
    <component base="o"/>
  </outline>
</glyph>
<glyph name="uniA750" format="2">
  <advance width="584"/>
  <unicode hex="A750"/>
  <anchor x="142" y="0" name="bottom"/>
  <anchor x="382" y="714" name="top"/>
  <anchor x="648" y="714" name="topright"/>
  <outline>
    <contour>
      <point x="9" y="143" type="line"/>
      <point x="347" y="143" type="line"/>
      <point x="362" y="203" type="line"/>
      <point x="25" y="203" type="line"/>
    </contour>
    <component base="P"/>
  </outline>
</glyph>
<glyph name="uniA7A2" format="2">
  <advance width="635"/>
  <unicode hex="A7A2"/>
  <anchor x="261" y="0" name="bottom"/>
  <anchor x="413" y="714" name="top"/>
  <anchor x="710" y="714" name="topright"/>
  <outline>
    <contour>
      <point x="-3" y="119" type="line"/>
      <point x="629" y="254" type="line"/>
      <point x="642" y="315" type="line"/>
      <point x="12" y="180" type="line"/>
    </contour>
    <component base="K"/>
  </outline>
</glyph>
<glyph name="uniA7A3" format="2">
  <advance width="529"/>
  <unicode hex="A7A3"/>
  <anchor x="209" y="0" name="bottom"/>
  <anchor x="371" y="760" name="top"/>
  <anchor x="614" y="760" name="topright"/>
  <outline>
    <contour>
      <point x="-48" y="46" type="line"/>
      <point x="508" y="209" type="line"/>
      <point x="522" y="273" type="line"/>
      <point x="-34" y="109" type="line"/>
    </contour>
    <component base="k"/>
  </outline>
</glyph>
<glyph name="uniA7A6" format="2">
  <advance width="609"/>
  <unicode hex="A7A6"/>
  <anchor x="248" y="0" name="bottom"/>
  <anchor x="400" y="714" name="top"/>
  <anchor x="684" y="714" name="topright"/>
  <outline>
    <contour>
      <point x="47" y="396" type="line"/>
      <point x="695" y="538" type="line"/>
      <point x="708" y="599" type="line"/>
      <point x="60" y="457" type="line"/>
    </contour>
    <component base="R"/>
  </outline>
</glyph>
<glyph name="uniFE21" format="2">
  <unicode hex="FE21"/>
  <anchor x="60" y="536" name="_top"/>
  <outline>
    <contour>
      <point x="353" y="593" type="curve"/>
      <point x="423" y="593" type="line"/>
      <point x="372" y="734"/>
      <point x="247" y="805"/>
      <point x="123" y="805" type="curve"/>
      <point x="117" y="805" type="line"/>
      <point x="113" y="715" type="line"/>
      <point x="122" y="715" type="line" smooth="yes"/>
      <point x="234" y="715"/>
      <point x="287" y="684"/>
    </contour>
  </outline>
</glyph>
<glyph name="uniFE2D" format="2">
  <unicode hex="FE2D"/>
  <anchor x="-57" y="0" name="_bottom"/>
  <outline>
    <contour>
      <point x="-419" y="-209" type="line"/>
      <point x="215" y="-209" type="line"/>
      <point x="233" y="-134" type="line"/>
      <point x="-402" y="-134" type="line"/>
    </contour>
  </outline>
</glyph>
<glyph name="eth.sc" format="2">
  <advance width="577"/>
  <anchor x="234" y="0" name="bottom"/>
  <anchor x="356" y="571" name="top"/>
  <anchor x="289" y="286" name="center"/>
  <anchor x="618" y="571" name="topright"/>
  <outline>
    <contour>
      <point x="59" y="269" type="line"/>
      <point x="314" y="269" type="line"/>
      <point x="328" y="328" type="line"/>
      <point x="72" y="328" type="line"/>
    </contour>
    <component base="d.sc"/>
  </outline>
</glyph>
